<?xml version="1.0" encoding="UTF-8" standalone="no"?>
<!-- Created with Inkscape (http://www.inkscape.org/) -->
<svg
   xmlns:dc="http://purl.org/dc/elements/1.1/"
   xmlns:cc="http://web.resource.org/cc/"
   xmlns:rdf="http://www.w3.org/1999/02/22-rdf-syntax-ns#"
   xmlns:svg="http://www.w3.org/2000/svg"
   xmlns="http://www.w3.org/2000/svg"
   xmlns:xlink="http://www.w3.org/1999/xlink"
   xmlns:sodipodi="http://sodipodi.sourceforge.net/DTD/sodipodi-0.dtd"
   xmlns:inkscape="http://www.inkscape.org/namespaces/inkscape"
   width="144.07745"
   height="176.6154"
   id="svg2"
   sodipodi:version="0.32"
   inkscape:version="0.45"
   sodipodi:docbase="Z:\Projects\Tagging\Mockup"
   sodipodi:docname="Tag Icon.svg"
   version="1.0"
   inkscape:export-filename="Z:\Projects\Tagging\Mockup\icon_tags_w144.png"
   inkscape:export-xdpi="90"
   inkscape:export-ydpi="90"
   inkscape:output_extension="org.inkscape.output.svg.inkscape"
   sodipodi:modified="true">
  <defs
     id="defs4">
    <linearGradient
       id="linearGradient2876">
      <stop
         style="stop-color:#f2f2ec;stop-opacity:1;"
         offset="0"
         id="stop2878" />
      <stop
         style="stop-color:#dbdbca;stop-opacity:1;"
         offset="1"
         id="stop2880" />
    </linearGradient>
    <linearGradient
       id="linearGradient2817">
      <stop
         style="stop-color:#3c3c3c;stop-opacity:1;"
         offset="0"
         id="stop2819" />
      <stop
         style="stop-color:#cdcdcd;stop-opacity:1;"
         offset="1"
         id="stop2821" />
    </linearGradient>
    <linearGradient
       inkscape:collect="always"
       id="linearGradient2805">
      <stop
         style="stop-color:maroon;stop-opacity:1;"
         offset="0"
         id="stop2807" />
      <stop
         style="stop-color:maroon;stop-opacity:0;"
         offset="1"
         id="stop2809" />
    </linearGradient>
    <linearGradient
       inkscape:collect="always"
       xlink:href="#linearGradient2817"
       id="linearGradient2854"
       gradientUnits="userSpaceOnUse"
       gradientTransform="matrix(0.476848,0,0,0.478349,-51.32178,-138.7597)"
       x1="280.10242"
       y1="501.37717"
       x2="-56.403862"
       y2="224.47693" />
    <linearGradient
       inkscape:collect="always"
       xlink:href="#linearGradient2805"
       id="linearGradient2856"
       gradientUnits="userSpaceOnUse"
       gradientTransform="matrix(0.476848,0,0,0.336427,-51.32178,-85.29024)"
       x1="126.0901"
       y1="467.43823"
       x2="421.84741"
       y2="467.43823" />
    <linearGradient
       inkscape:collect="always"
       xlink:href="#linearGradient2805"
       id="linearGradient2858"
       gradientUnits="userSpaceOnUse"
       gradientTransform="matrix(0.529632,0,0,0.33591,-63.27344,-75.45357)"
       x1="144.86452"
       y1="552.13605"
       x2="422.91586"
       y2="552.13605" />
    <linearGradient
       inkscape:collect="always"
       xlink:href="#linearGradient2817"
       id="linearGradient2870"
       gradientUnits="userSpaceOnUse"
       gradientTransform="matrix(0.476848,0,0,0.478349,-51.32178,-138.7597)"
       x1="280.10242"
       y1="501.37717"
       x2="-56.403862"
       y2="224.47693" />
    <linearGradient
       inkscape:collect="always"
       xlink:href="#linearGradient2805"
       id="linearGradient2872"
       gradientUnits="userSpaceOnUse"
       gradientTransform="matrix(0.476848,0,0,0.336427,-51.32178,-85.29024)"
       x1="126.0901"
       y1="467.43823"
       x2="421.84741"
       y2="467.43823" />
    <linearGradient
       inkscape:collect="always"
       xlink:href="#linearGradient2805"
       id="linearGradient2874"
       gradientUnits="userSpaceOnUse"
       gradientTransform="matrix(0.529632,0,0,0.33591,-63.27344,-75.45357)"
       x1="144.86452"
       y1="552.13605"
       x2="422.91586"
       y2="552.13605" />
    <linearGradient
       inkscape:collect="always"
       xlink:href="#linearGradient2876"
       id="linearGradient2882"
       x1="19.755306"
       y1="42.151794"
       x2="85.181572"
       y2="147.49324"
       gradientUnits="userSpaceOnUse" />
    <linearGradient
       inkscape:collect="always"
       xlink:href="#linearGradient2876"
       id="linearGradient2890"
       x1="-1.3557584"
       y1="10.933842"
       x2="62.835484"
       y2="123.0804"
       gradientUnits="userSpaceOnUse" />
  </defs>
  <sodipodi:namedview
     id="base"
     pagecolor="#ffffff"
     bordercolor="#666666"
     borderopacity="1.0"
     gridtolerance="10000"
     guidetolerance="10"
     objecttolerance="10"
     inkscape:pageopacity="0.0"
     inkscape:pageshadow="2"
     inkscape:zoom="1"
     inkscape:cx="-42.669105"
     inkscape:cy="91.626056"
     inkscape:document-units="px"
     inkscape:current-layer="layer1"
     showguides="true"
     inkscape:guide-bbox="true"
     inkscape:window-width="853"
     inkscape:window-height="864"
     inkscape:window-x="283"
     inkscape:window-y="102"
     width="100px"
     height="161px" />
  <metadata
     id="metadata7">
    <rdf:RDF>
      <cc:Work
         rdf:about="">
        <dc:format>image/svg+xml</dc:format>
        <dc:type
           rdf:resource="http://purl.org/dc/dcmitype/StillImage" />
      </cc:Work>
    </rdf:RDF>
  </metadata>
  <g
     inkscape:label="Layer 1"
     inkscape:groupmode="layer"
     id="layer1"
     transform="translate(14.581514,17.843326)">
    <g
       id="g2846"
       transform="matrix(0.987692,-0.328157,0.328157,0.987692,-28.97586,3.601519)">
      <path
         id="path1872"
         d="M 34.615196,4.5805524 L 3.1432232,35.927346 L 3.1730292,157.65219 L 97.559156,157.65219 L 97.559156,35.927346 L 66.087183,4.5805524 L 34.615196,4.5805524 z M 50.351183,18.706787 C 53.06905,18.706787 55.268681,20.928305 55.268681,23.654707 C 55.268681,26.38111 53.069036,28.587688 50.351183,28.587688 C 47.633329,28.587675 45.418795,26.381124 45.418795,23.654707 C 45.418782,20.928291 47.633329,18.706787 50.351183,18.706787 z "
         style="fill:url(#linearGradient2890);fill-opacity:1;fill-rule:evenodd;stroke:url(#linearGradient2854);stroke-width:0.96081853;stroke-linecap:butt;stroke-linejoin:miter;stroke-miterlimit:4;stroke-dasharray:none;stroke-opacity:1" />
      <path
         id="path2760"
         d="M 50.349851,14.758045 C 45.456715,14.758045 41.482557,18.744762 41.482557,23.653367 C 41.482557,28.561959 45.456715,32.536396 50.349851,32.536396 C 55.242988,32.536396 59.204913,28.561972 59.204913,23.653367 C 59.204913,18.744762 55.242988,14.758032 50.349851,14.758045 z M 50.349851,19.389989 C 52.690047,19.389989 54.587546,21.305776 54.587546,23.653367 C 54.587546,26.00096 52.690047,27.904439 50.349851,27.904439 C 48.009657,27.904439 46.099913,26.000947 46.099913,23.653367 C 46.099913,21.305776 48.009657,19.389989 50.349851,19.389989 z "
         style="opacity:1;fill:#800000;fill-opacity:1;fill-rule:nonzero;stroke:#650000;stroke-width:0.96081853;stroke-linecap:square;stroke-miterlimit:4;stroke-dasharray:none;stroke-opacity:1" />
      <path
         d="M 8.8040067,83.307956 C 9.5165454,82.208024 10.614938,81.169311 11.531568,80.128883 C 14.709911,76.215052 18.640078,72.663073 22.708145,69.197839 C 25.711546,66.723282 28.740994,64.255934 32.10306,62.023363 C 39.124878,58.515453 37.804256,62.281279 38.025089,66.113242 C 38.319525,70.105497 38.355453,74.113763 39.146817,78.076996 C 39.556475,79.9484 40.049953,80.710411 42.590259,80.203247 C 44.724197,79.432112 44.146967,79.581751 50.377555,76.226696 C 55.176837,73.283337 60.229926,70.888062 65.873188,68.860052 C 68.06718,69.5261 67.753479,71.30757 68.085588,72.821704 C 68.353023,74.178052 69.015334,74.789057 70.840229,74.91506 C 76.493171,72.693971 66.451761,77.198227 73.69566,73.588592 C 76.406358,72.274598 78.846854,70.492874 82.154062,71.24304 C 84.128604,71.989897 86.057766,72.77194 88.162206,73.324981 L 84.293222,75.155277 C 82.223354,74.543856 80.29536,73.743444 78.244813,73.105855 C 73.250409,72.503479 82.707756,70.930858 77.960004,72.402879 C 74.513514,74.103513 71.040842,75.997547 66.992055,76.876639 C 65.0523,76.513554 64.218604,75.860637 64.02132,74.337727 C 63.761498,73.113251 63.983794,71.343586 62.193741,70.861063 C 70.724684,66.856388 54.686313,74.330893 54.028069,75.198636 C 49.26042,77.813184 44.481882,80.507591 38.897883,82.221785 C 36.024312,82.767524 35.510924,81.280911 35.34264,79.481848 C 34.885051,75.481058 34.759073,71.466508 34.32459,67.464552 C 33.88385,63.924485 31.411346,62.43676 36.426398,60.802773 C 32.48306,62.816566 29.55647,65.688402 26.216772,68.145888 C 22.250931,71.493319 18.495022,74.970318 15.617048,78.849271 C 14.873697,79.783861 14.054125,80.892516 13.224805,81.718762 L 8.8040067,83.307956 z "
         id="path2789"
         style="opacity:1;fill:url(#linearGradient2856);fill-opacity:1;fill-rule:nonzero;stroke:none;stroke-width:1;stroke-linecap:square;stroke-miterlimit:4;stroke-dasharray:none;stroke-opacity:1" />
      <path
         d="M 13.451339,121.84905 C 13.519369,121.23925 13.54406,120.62803 13.578364,120.01722 C 13.640043,117.22119 13.9636,114.45775 14.858667,111.71742 C 16.126994,108.17581 19.21357,105.08156 22.398197,102.1172 C 25.545244,99.37776 29.683463,97.35952 34.772614,96.18049 C 37.388778,95.56432 38.960751,95.95116 40.653976,97.29693 C 42.512274,100.17734 42.907741,103.33983 43.241193,106.41636 C 43.680295,109.84365 42.526587,113.22086 41.522472,116.56785 C 40.940557,118.56519 40.282327,120.5688 40.270028,122.60024 C 32.193063,125.98364 37.616486,122.54204 39.473872,120.83125 C 43.581089,117.17338 48.429537,113.86484 53.245521,110.5806 C 56.743715,108.36927 60.023694,105.9625 63.950357,104.04326 C 69.461426,101.60116 70.253622,101.65121 70.611643,104.83294 C 70.118394,105.93784 71.450508,106.91978 71.79509,107.25875 C 63.70149,110.99564 70.653385,106.26372 72.286326,104.80677 C 74.635807,102.4347 77.971142,101.69804 81.816308,100.51946 C 83.193213,100.78862 84.128236,101.53423 85.173152,102.13368 C 86.590939,102.8786 88.310506,103.27474 90.006603,103.68469 L 85.637831,105.53901 C 83.913592,105.08992 82.143933,104.67533 80.692594,103.90857 C 79.72273,103.35973 78.840592,102.67677 77.526576,102.51857 C 82.196241,100.46822 79.81776,101.23374 76.875743,103.5447 C 73.940024,106.12897 72.695152,108.05954 67.448364,109.28381 C 66.385081,108.45926 65.855043,107.65046 66.023273,106.34647 C 65.63515,103.79392 63.807933,104.48679 68.725217,102.8461 C 64.412297,104.68989 60.962866,107.24636 57.241986,109.52044 C 52.532042,112.71003 47.791164,115.93229 43.973079,119.58409 C 41.344804,122.1252 40.605588,123.49469 35.523955,124.13414 C 35.914078,122.02442 36.58176,119.94164 37.302166,117.86653 C 38.373331,114.55115 39.373793,111.20607 39.021988,107.80241 C 38.716073,104.81575 38.473423,101.6764 36.261251,98.97167 C 34.598007,97.78992 33.080464,97.61406 30.73622,98.1902 C 29.313398,98.56676 26.745608,99.28705 32.681211,97.32593 C 35.125212,96.51843 24.038455,101.42448 26.683888,100.93492 C 23.423954,103.82571 20.445808,106.87894 19.19237,110.38898 C 18.267175,113.05966 17.819963,115.77835 18.234469,118.51256 C 18.26845,119.09602 18.29208,119.67996 18.36148,120.26229 L 13.451339,121.84905 z "
         id="path2791"
         style="opacity:1;fill:url(#linearGradient2858);fill-opacity:1;fill-rule:nonzero;stroke:none;stroke-width:1;stroke-linecap:square;stroke-miterlimit:4;stroke-dasharray:none;stroke-opacity:1" />
    </g>
    <g
       transform="matrix(1.016752,0.266502,-0.266502,1.016752,39.12718,-30.97563)"
       id="use2852">
      <path
         style="fill:url(#linearGradient2882);fill-opacity:1;fill-rule:evenodd;stroke:url(#linearGradient2870);stroke-width:1.42707968;stroke-linecap:butt;stroke-linejoin:miter;stroke-miterlimit:4;stroke-dasharray:none;stroke-opacity:1"
         d="M 34.615196,4.5805524 L 3.1432232,35.927346 L 3.1730292,157.65219 L 97.559156,157.65219 L 97.559156,35.927346 L 66.087183,4.5805524 L 34.615196,4.5805524 z M 50.351183,18.706787 C 53.06905,18.706787 55.268681,20.928305 55.268681,23.654707 C 55.268681,26.38111 53.069036,28.587688 50.351183,28.587688 C 47.633329,28.587675 45.418795,26.381124 45.418795,23.654707 C 45.418782,20.928291 47.633329,18.706787 50.351183,18.706787 z "
         id="path2862" />
      <path
         style="opacity:1;fill:#800000;fill-opacity:1;fill-rule:nonzero;stroke:#650000;stroke-width:1.01762915;stroke-linecap:square;stroke-miterlimit:4;stroke-dasharray:none;stroke-opacity:1"
         d="M 50.349851,14.758045 C 45.456715,14.758045 41.482557,18.744762 41.482557,23.653367 C 41.482557,28.561959 45.456715,32.536396 50.349851,32.536396 C 55.242988,32.536396 59.204913,28.561972 59.204913,23.653367 C 59.204913,18.744762 55.242988,14.758032 50.349851,14.758045 z M 50.349851,19.389989 C 52.690047,19.389989 54.587546,21.305776 54.587546,23.653367 C 54.587546,26.00096 52.690047,27.904439 50.349851,27.904439 C 48.009657,27.904439 46.099913,26.000947 46.099913,23.653367 C 46.099913,21.305776 48.009657,19.389989 50.349851,19.389989 z "
         id="path2864" />
      <path
         style="opacity:1;fill:url(#linearGradient2872);fill-opacity:1;fill-rule:nonzero;stroke:none;stroke-width:1;stroke-linecap:square;stroke-miterlimit:4;stroke-dasharray:none;stroke-opacity:1"
         id="path2866"
         d="M 8.8040067,83.307956 C 9.5165454,82.208024 10.614938,81.169311 11.531568,80.128883 C 14.709911,76.215052 18.640078,72.663073 22.708145,69.197839 C 25.711546,66.723282 28.740994,64.255934 32.10306,62.023363 C 39.124878,58.515453 37.804256,62.281279 38.025089,66.113242 C 38.319525,70.105497 38.355453,74.113763 39.146817,78.076996 C 39.556475,79.9484 40.049953,80.710411 42.590259,80.203247 C 44.724197,79.432112 44.146967,79.581751 50.377555,76.226696 C 55.176837,73.283337 60.229926,70.888062 65.873188,68.860052 C 68.06718,69.5261 67.753479,71.30757 68.085588,72.821704 C 68.353023,74.178052 69.015334,74.789057 70.840229,74.91506 C 76.493171,72.693971 66.451761,77.198227 73.69566,73.588592 C 76.406358,72.274598 78.846854,70.492874 82.154062,71.24304 C 84.128604,71.989897 86.057766,72.77194 88.162206,73.324981 L 84.293222,75.155277 C 82.223354,74.543856 80.29536,73.743444 78.244813,73.105855 C 73.250409,72.503479 82.707756,70.930858 77.960004,72.402879 C 74.513514,74.103513 71.040842,75.997547 66.992055,76.876639 C 65.0523,76.513554 64.218604,75.860637 64.02132,74.337727 C 63.761498,73.113251 63.983794,71.343586 62.193741,70.861063 C 70.724684,66.856388 54.686313,74.330893 54.028069,75.198636 C 49.26042,77.813184 44.481882,80.507591 38.897883,82.221785 C 36.024312,82.767524 35.510924,81.280911 35.34264,79.481848 C 34.885051,75.481058 34.759073,71.466508 34.32459,67.464552 C 33.88385,63.924485 31.411346,62.43676 36.426398,60.802773 C 32.48306,62.816566 29.55647,65.688402 26.216772,68.145888 C 22.250931,71.493319 18.495022,74.970318 15.617048,78.849271 C 14.873697,79.783861 14.054125,80.892516 13.224805,81.718762 L 8.8040067,83.307956 z " />
      <path
         style="opacity:1;fill:url(#linearGradient2874);fill-opacity:1;fill-rule:nonzero;stroke:none;stroke-width:1;stroke-linecap:square;stroke-miterlimit:4;stroke-dasharray:none;stroke-opacity:1"
         id="path2868"
         d="M 13.451339,121.84905 C 13.519369,121.23925 13.54406,120.62803 13.578364,120.01722 C 13.640043,117.22119 13.9636,114.45775 14.858667,111.71742 C 16.126994,108.17581 19.21357,105.08156 22.398197,102.1172 C 25.545244,99.37776 29.683463,97.35952 34.772614,96.18049 C 37.388778,95.56432 38.960751,95.95116 40.653976,97.29693 C 42.512274,100.17734 42.907741,103.33983 43.241193,106.41636 C 43.680295,109.84365 42.526587,113.22086 41.522472,116.56785 C 40.940557,118.56519 40.282327,120.5688 40.270028,122.60024 C 32.193063,125.98364 37.616486,122.54204 39.473872,120.83125 C 43.581089,117.17338 48.429537,113.86484 53.245521,110.5806 C 56.743715,108.36927 60.023694,105.9625 63.950357,104.04326 C 69.461426,101.60116 70.253622,101.65121 70.611643,104.83294 C 70.118394,105.93784 71.450508,106.91978 71.79509,107.25875 C 63.70149,110.99564 70.653385,106.26372 72.286326,104.80677 C 74.635807,102.4347 77.971142,101.69804 81.816308,100.51946 C 83.193213,100.78862 84.128236,101.53423 85.173152,102.13368 C 86.590939,102.8786 88.310506,103.27474 90.006603,103.68469 L 85.637831,105.53901 C 83.913592,105.08992 82.143933,104.67533 80.692594,103.90857 C 79.72273,103.35973 78.840592,102.67677 77.526576,102.51857 C 82.196241,100.46822 79.81776,101.23374 76.875743,103.5447 C 73.940024,106.12897 72.695152,108.05954 67.448364,109.28381 C 66.385081,108.45926 65.855043,107.65046 66.023273,106.34647 C 65.63515,103.79392 63.807933,104.48679 68.725217,102.8461 C 64.412297,104.68989 60.962866,107.24636 57.241986,109.52044 C 52.532042,112.71003 47.791164,115.93229 43.973079,119.58409 C 41.344804,122.1252 40.605588,123.49469 35.523955,124.13414 C 35.914078,122.02442 36.58176,119.94164 37.302166,117.86653 C 38.373331,114.55115 39.373793,111.20607 39.021988,107.80241 C 38.716073,104.81575 38.473423,101.6764 36.261251,98.97167 C 34.598007,97.78992 33.080464,97.61406 30.73622,98.1902 C 29.313398,98.56676 26.745608,99.28705 32.681211,97.32593 C 35.125212,96.51843 24.038455,101.42448 26.683888,100.93492 C 23.423954,103.82571 20.445808,106.87894 19.19237,110.38898 C 18.267175,113.05966 17.819963,115.77835 18.234469,118.51256 C 18.26845,119.09602 18.29208,119.67996 18.36148,120.26229 L 13.451339,121.84905 z " />
    </g>
  </g>
</svg>
