<?xml version="1.0" encoding="utf-8" standalone="no" ?>
<svg 
	version="1.0" 
	
 	xmlns="http://www.w3.org/2000/svg" 
	xmlns:xlink="http://www.w3.org/1999/xlink" 
	xmlns:oryx="http://www.b3mn.org/oryx"
	 
	width="420px" 
	height="120px">

	<defs></defs>
 
  <g>
  
    <defs>
	  <radialGradient id="background" cx="10%" cy="10%" r="100%" fx="10%" fy="10%">
		<stop offset="0%" stop-color="#ffffff" stop-opacity="1"/>
		<stop id="fill_el" offset="100%" stop-color="#ffffff" stop-opacity="1"/>
	  </radialGradient>
	</defs>
    
 	<rect id="main_frame" 
 	x="0" y="0" 
 	width="400" height="100" 
 	stroke="none" 
 	stroke-width="1" 
 	fill="none" />
 	
    <rect id="text_frame_title" 
    x="80" y="0" 
    width="320" height="60" 
    stroke="black" 
    stroke-width="1" 
    fill="url(#background)" />
    	
    <rect id="image_frame" 
    x="0" y="0" 
    width="80" height="100" 
	stroke="black" 
	stroke-width="1" 
	fill="url(#background)" />
	
    <rect id="attributes_frame" 
    x="80" y="60" 
    width="320" height="40" 
    stroke="black" 
    stroke-width="1" 
    fill="url(#background)" />

	<text id="text_name_title"  
	font-size="12" 
	x="240" y="30" 
	oryx:align="middle center"
	oryx:fittoelem="text_frame_title"
	stroke="black">
	</text>
	
	<g id="attribute_clock_work" transform="translate(60,60) scale(0.8)">
		<circle fill="url(#background)" cx="55" cy="18" r="15"/>
	    <path d="	
	        M 55 4 L 55 8
	    		M 40 18 L 44 18
	    		M 55 33 L 55 29
	    		M 70 18 L 66 18
	    		M 53 9 L 55 18 L 58 21" 
	    		fill="none" stroke="black" />
		<path transform="scale(2) translate(-20,-15)"
	       style="fill:#4d4d4d;stroke:#000000;stroke-width:0.30632811999999998;stroke-miterlimit:4;stroke-opacity:1;stroke-dasharray:none;stroke-dashoffset:1.32200000000000010"
	       d="m 42.227475,21.543097 c -0.209466,-0.0799 -0.420499,-0.15693 -0.644459,-0.20276 -0.252964,-0.0518 -0.514768,-0.0682 -0.78204,-0.0724 l -0.325851,1.20927 c -0.238806,0.0203 -0.468281,0.0648 -0.687905,0.13758 l -0.7748,-0.98479 c -0.221367,0.0994 -0.438116,0.21306 -0.637218,0.34757 -0.202647,0.13691 -0.389368,0.29426 -0.564807,0.46343 l 0.622736,1.08617 c -0.150875,0.17849 -0.277333,0.37602 -0.383779,0.58653 l -1.23823,-0.14482 c -0.08101,0.21144 -0.156453,0.42545 -0.202752,0.6517 -0.05129,0.25066 -0.07507,0.51007 -0.07965,0.7748 l 1.209266,0.32585 c 0.02017,0.23836 0.06509,0.47588 0.137581,0.69515 l -0.97755,0.76755 c 0.09933,0.22125 0.205893,0.43822 0.340332,0.63722 0.138817,0.20548 0.298712,0.39458 0.470673,0.57205 l 1.078926,-0.62274 c 0.179174,0.15152 0.382326,0.27706 0.593771,0.38378 l -0.144822,1.23823 c 0.209466,0.0799 0.420499,0.15693 0.644459,0.20276 0.250839,0.0513 0.517113,0.0678 0.78204,0.0724 l 0.325851,-1.20927 c 0.239223,-0.0202 0.467919,-0.0646 0.687905,-0.13758 l 0.7748,0.98479 c 0.221368,-0.0994 0.438116,-0.21306 0.637218,-0.34757 0.202648,-0.13691 0.389368,-0.29426 0.564807,-0.46343 l -0.622736,-1.08617 c 0.150875,-0.17849 0.277333,-0.37602 0.383779,-0.58653 l 1.23823,0.14482 c 0.08101,-0.21144 0.156454,-0.42545 0.202752,-0.6517 0.05129,-0.25066 0.07507,-0.51007 0.07965,-0.7748 l -1.209266,-0.32585 c -0.02017,-0.23835 -0.06509,-0.47588 -0.137581,-0.69515 l 0.97755,-0.76755 c -0.09933,-0.22124 -0.205893,-0.43822 -0.340332,-0.63722 -0.138817,-0.20548 -0.298711,-0.39458 -0.470673,-0.57205 l -1.078926,0.62274 c -0.180272,-0.15245 -0.380855,-0.27671 -0.593771,-0.38378 l 0.144822,-1.23823 z"/>
	    <path transform="scale(2) translate(-20,-15)"
	       d="m 46.741149,27.349467 c -0.152464,-0.05816 -0.306068,-0.114224 -0.469082,-0.147583 -0.184125,-0.0377 -0.374684,-0.04964 -0.569223,-0.0527 l -0.237177,0.88019 c -0.17382,0.01478 -0.340847,0.04717 -0.500705,0.100141 l -0.563953,-0.716799 c -0.161127,0.07235 -0.318892,0.15508 -0.463812,0.252986 -0.147501,0.09965 -0.283409,0.214183 -0.411106,0.337316 l 0.453271,0.79059 c -0.109818,0.129918 -0.201862,0.273694 -0.279341,0.426918 l -0.90127,-0.10541 c -0.05897,0.1539 -0.113878,0.309672 -0.147577,0.474352 -0.03733,0.182448 -0.05464,0.371265 -0.05798,0.563954 l 0.880188,0.237176 c 0.01468,0.173495 0.04738,0.346378 0.100141,0.505978 l -0.711529,0.558677 c 0.0723,0.161041 0.149863,0.318967 0.247717,0.463813 0.101041,0.149562 0.217424,0.287203 0.342589,0.416378 l 0.785317,-0.453274 c 0.130416,0.110287 0.278284,0.201664 0.432188,0.279342 l -0.105411,0.90127 c 0.152464,0.05816 0.306068,0.114224 0.469082,0.147583 0.182578,0.03734 0.376391,0.04935 0.569223,0.0527 l 0.237177,-0.88019 c 0.174123,-0.0147 0.340584,-0.04702 0.500705,-0.100141 l 0.563953,0.716799 c 0.161127,-0.07235 0.318892,-0.15508 0.463812,-0.252986 0.147501,-0.09965 0.283409,-0.214183 0.411106,-0.337316 l -0.453271,-0.79059 c 0.109818,-0.129918 0.201862,-0.273694 0.279341,-0.426918 l 0.90127,0.10541 c 0.05897,-0.1539 0.113878,-0.309672 0.147577,-0.474352 0.03733,-0.182448 0.05464,-0.371265 0.05797,-0.563954 l -0.880188,-0.237176 c -0.01468,-0.173488 -0.04738,-0.346378 -0.100141,-0.505978 l 0.711529,-0.558677 c -0.0723,-0.161034 -0.149863,-0.318967 -0.247717,-0.463813 -0.101041,-0.149562 -0.217423,-0.287203 -0.342589,-0.416378 l -0.785317,0.453274 C 46.936711,28.419115 46.790713,28.32867 46.635738,28.250737 l 0.105411,-0.90127 z"
	       style="fill:#999999;stroke:#000000;stroke-width:0.22296692000000001;stroke-miterlimit:4;stroke-opacity:1;stroke-dasharray:none;stroke-dashoffset:1.32200000000000010" />
	    
	    <text id="work_time"  
		  font-size="12" 
		  x="55" y="40" 
		  oryx:align="middle center"
		  stroke="black">
		</text>
		
     </g>
     		
  </g>  
  
</svg>
