<?xml version="1.0" encoding="utf-8" standalone="no" ?>
<svg version="1.0" xmlns="http://www.w3.org/2000/svg" xmlns:xlink="http://www.w3.org/1999/xlink" xmlns:oryx="http://www.b3mn.org/oryx" width="602px" height="62px">
 
  <g>
  
    <defs>
	  <radialGradient id="background" cx="10%" cy="10%" r="100%" fx="10%" fy="10%">
		<stop offset="0%" stop-color="#ffffff" stop-opacity="1"/>
		<stop id="fill_el" offset="100%" stop-color="#ffffff" stop-opacity="1"/>
	  </radialGradient>
	  <!-- for every unique pic a pattern is needed -->
	  <pattern id="image_copy" x="0" y="0" width="48" height="48">
        <image x="7" y="7" width="48" height="48" oryx:anchors="top" xlink:href="change_medium/copy.png" />
      </pattern>
      <pattern id="image_edv" x="0" y="0" width="48" height="48">
        <image x="7" y="7" width="48" height="48" oryx:anchors="top" xlink:href="change_medium/edv_input.png" />
      </pattern>
      <pattern id="image_print" x="0" y="0" width="48" height="48">
        <image x="7" y="7" width="48" height="48" oryx:anchors="top" xlink:href="change_medium/print.png" />
      </pattern>
      <pattern id="image_save" x="0" y="0" width="48" height="48">
        <image x="7" y="7" width="48" height="48" oryx:anchors="top" xlink:href="change_medium/save_to_volume.png" />
      </pattern>
      <pattern id="image_scan" x="0" y="0" width="48" height="48">
        <image x="7" y="7" width="48" height="48" oryx:anchors="top" xlink:href="change_medium/scan.png" />
      </pattern>
      <pattern id="image_calculate" x="0" y="0" width="48" height="48">
        <image x="7" y="7" width="48" height="48" oryx:anchors="top" xlink:href="content_work/calculate.png" />
      </pattern>
      <pattern id="image_collect" x="0" y="0" width="48" height="48">
        <image x="7" y="7" width="48" height="48" oryx:anchors="top" xlink:href="content_work/collect.png" />
      </pattern>
      <pattern id="image_content" x="0" y="0" width="48" height="48">
        <image x="7" y="7" width="48" height="48" oryx:anchors="top" xlink:href="content_work/content.png" />
      </pattern>
      <pattern id="image_formally" x="0" y="0" width="48" height="48">
        <image x="7" y="7" width="48" height="48" oryx:anchors="top" xlink:href="content_work/formally.png" />
      </pattern>
      <pattern id="image_pay" x="0" y="0" width="48" height="48">
        <image x="7" y="7" width="48" height="48" oryx:anchors="top" xlink:href="content_work/pay.png" />
      </pattern>
      <pattern id="image_relocation" x="0" y="0" width="48" height="48">
        <image x="7" y="7" width="48" height="48" oryx:anchors="top" xlink:href="content_work/relocation.png" />
      </pattern>
      <pattern id="image_review" x="0" y="0" width="48" height="48">
        <image x="7" y="7" width="48" height="48" oryx:anchors="top" xlink:href="content_work/review.png" />
      </pattern>
	  <pattern id="image_archive" x="0" y="0" width="48" height="48">
        <image x="7" y="7" width="48" height="48" oryx:anchors="top" xlink:href="documentation/archive.png" />
      </pattern>
      <pattern id="image_capture" x="0" y="0" width="48" height="48">
        <image x="7" y="7" width="48" height="48" oryx:anchors="top" xlink:href="documentation/capture.png" />
      </pattern>
      <pattern id="image_create" x="0" y="0" width="48" height="48">
        <image x="7" y="7" width="48" height="48" oryx:anchors="top" xlink:href="documentation/create.png" />
      </pattern>
      <pattern id="image_edit" x="0" y="0" width="48" height="48">
        <image x="7" y="7" width="48" height="48" oryx:anchors="top" xlink:href="documentation/edit.png" />
      </pattern>
      <pattern id="image_incoming" x="0" y="0" width="48" height="48">
        <image x="7" y="7" width="48" height="48" oryx:anchors="top" xlink:href="information_flow/incoming.png" />
      </pattern>
      <pattern id="image_outgoing" x="0" y="0" width="48" height="48">
        <image x="7" y="7" width="48" height="48" oryx:anchors="top" xlink:href="information_flow/outgoing.png" />
      </pattern>
      <pattern id="image_pause" x="0" y="0" width="48" height="48">
        <image x="7" y="7" width="48" height="48" oryx:anchors="top" xlink:href="information_flow/pause.png" />
      </pattern>
      <pattern id="image_agreement" x="0" y="0" width="48" height="48">
        <image x="7" y="7" width="48" height="48" oryx:anchors="top" xlink:href="information_retrieval/agreement.png" />
      </pattern>
      <pattern id="image_research" x="0" y="0" width="48" height="48">
        <image x="7" y="7" width="48" height="48" oryx:anchors="top" xlink:href="information_retrieval/research.png" />
      </pattern>
      <pattern id="image_request" x="0" y="0" width="48" height="48">
        <image x="7" y="7" width="48" height="48" oryx:anchors="top" xlink:href="information_retrieval/request.png" />
      </pattern>
      <pattern id="image_consulting" x="0" y="0" width="48" height="48">
        <image x="7" y="7" width="48" height="48" oryx:anchors="top" xlink:href="information_retrieval/consulting.png" />
      </pattern>
	</defs>
 	
    <rect id="text_frame_title" x="60" y="0" width="540" height="60" stroke="black" stroke-width="1" fill="url(#background)" oryx:anchors="top" />
	<text id="text_name_title" font-size="12" x="330" y="30" oryx:align="middle center"	oryx:fittoelem="text_frame_title" stroke="black" oryx:anchors="top"	/>
	
	<!-- every pic gets a unique frame where its placed in, by default all of them are hidden, the JSON needs to take care of showing the right one-->
	<rect id="copy_image" x="0" y="0" width="60" height="60" stroke="black" stroke-width="1" fill="url(#image_copy)" oryx:anchors="top" display="none"/>
	<rect id="edv_image" x="0" y="0" width="60" height="60" stroke="black" stroke-width="1" fill="url(#image_edv)" oryx:anchors="top" display="none"/> 
	<rect id="print_image" x="0" y="0" width="60" height="60" stroke="black" stroke-width="1" fill="url(#image_print)" oryx:anchors="top" display="none"/> 
	<rect id="save_image" x="0" y="0" width="60" height="60" stroke="black" stroke-width="1" fill="url(#image_save)" oryx:anchors="top" display="none"/> 
	<rect id="scan_image" x="0" y="0" width="60" height="60" stroke="black" stroke-width="1" fill="url(#image_scan)" oryx:anchors="top" display="none"/>
	<rect id="calculate_image" x="0" y="0" width="60" height="60" stroke="black" stroke-width="1" fill="url(#image_calculate)" oryx:anchors="top" display="none"/>
	<rect id="collect_image" x="0" y="0" width="60" height="60" stroke="black" stroke-width="1" fill="url(#image_collect)" oryx:anchors="top" display="none"/> 
	<rect id="content_image" x="0" y="0" width="60" height="60" stroke="black" stroke-width="1" fill="url(#image_content)" oryx:anchors="top" display="none"/> 
	<rect id="formally_image" x="0" y="0" width="60" height="60" stroke="black" stroke-width="1" fill="url(#image_formally)" oryx:anchors="top" display="none"/> 
	<rect id="pay_image" x="0" y="0" width="60" height="60" stroke="black" stroke-width="1" fill="url(#image_pay)" oryx:anchors="top" display="none"/>
	<rect id="relocate_image" x="0" y="0" width="60" height="60" stroke="black" stroke-width="1" fill="url(#image_relocation)" oryx:anchors="top" display="none"/> 
	<rect id="review_image" x="0" y="0" width="60" height="60" stroke="black" stroke-width="1" fill="url(#image_review)" oryx:anchors="top" display="none"/> 
	<rect id="archive_image" x="0" y="0" width="60" height="60" stroke="black" stroke-width="1" fill="url(#image_archive)" oryx:anchors="top" display="none"/>
	<rect id="capture_image" x="0" y="0" width="60" height="60" stroke="black" stroke-width="1" fill="url(#image_capture)" oryx:anchors="top" display="none"/> 
	<rect id="create_image" x="0" y="0" width="60" height="60" stroke="black" stroke-width="1" fill="url(#image_create)" oryx:anchors="top" display="none"/> 
	<rect id="edit_image" x="0" y="0" width="60" height="60" stroke="black" stroke-width="1" fill="url(#image_edit)" oryx:anchors="top" display="none"/> 
	<rect id="incoming_image" x="0" y="0" width="60" height="60" stroke="black" stroke-width="1" fill="url(#image_incoming)" oryx:anchors="top" display="none"/> 
	<rect id="outgoing_image" x="0" y="0" width="60" height="60" stroke="black" stroke-width="1" fill="url(#image_outgoing)" oryx:anchors="top" display="none"/> 
	<rect id="pause_image" x="0" y="0" width="60" height="60" stroke="black" stroke-width="1" fill="url(#image_pause)" oryx:anchors="top" display="none"/>
	<rect id="agreement_image" x="0" y="0" width="60" height="60" stroke="black" stroke-width="1" fill="url(#image_agreement)" oryx:anchors="top" display="none"/> 
	<rect id="research_image" x="0" y="0" width="60" height="60" stroke="black" stroke-width="1" fill="url(#image_research)" oryx:anchors="top" display="none"/> 
	<rect id="request_image" x="0" y="0" width="60" height="60" stroke="black" stroke-width="1" fill="url(#image_request)" oryx:anchors="top" display="none"/> 
	<rect id="consulting_image" x="0" y="0" width="60" height="60" stroke="black" stroke-width="1" fill="url(#image_consulting)" oryx:anchors="top" display="none"/> 

	<!-- the properties section -->
	<g id="properties">
	<rect id="properties_frame" x="60" y="60" width="540" height="60" stroke="black" stroke-width="1" fill="url(#background)"/>
	<text id="description" font-size="12" x="65" y="65" oryx:align="left top" stroke="black" oryx:anchors="top" />
	
	<!-- the part for the realisation text -->
	<text font-size="12" x="65" y="65" oryx:align="left top" stroke="black" oryx:anchors="top" font-weight="bold" id="realisation" />
	<text font-size="12" x="65" y="65" oryx:align="left top" stroke="black" oryx:anchors="top" font-style="italic" id="realisation_unit" />
	<text font-size="12" x="65" y="65" oryx:align="left top" stroke="black" oryx:anchors="top" id="realisation_unit_value" />
	<text font-size="12" x="65" y="65" oryx:align="left top" stroke="black" oryx:anchors="top" font-style="italic" id="realisation_method" />
	<text font-size="12" x="65" y="65" oryx:align="left top" stroke="black" oryx:anchors="top" id="realisation_method_value" />
	
	<!-- the part for the incoming text --> 		
	<text font-size="12" x="65" y="65" oryx:align="left top" stroke="black" oryx:anchors="top" font-weight="bold" id="incoming" />
	
	<!-- the part for the outgoing text -->		
	<text font-size="12" x="65" y="65" oryx:align="left top" stroke="black" oryx:anchors="top" font-weight="bold" id="outgoing" />
	
	<!-- the part for the communication text -->
	<text font-size="12" x="65" y="65" oryx:align="left top" stroke="black" oryx:anchors="top" font-weight="bold" id="communication" />
	
	<!-- the part for the payment text -->
	<text font-size="12" x="65" y="65" oryx:align="left top" stroke="black" oryx:anchors="top" font-weight="bold" id="payment" />
	
	<!-- the part for the resource text -->
	<text font-size="12" x="65" y="65" oryx:align="left top" stroke="black" oryx:anchors="top" font-weight="bold" id="resource" />
	
	<!-- the part for the comment text -->
	<text font-size="12" x="65" y="65" oryx:align="left top" stroke="black" oryx:anchors="top" font-weight="bold" id="comment" />
	</g>
  </g>  
  
</svg>
