<?xml version="1.0" encoding="utf-8" standalone="no" ?>
<svg 
	xmlns="http://www.w3.org/2000/svg"
	xmlns:svg="http://www.w3.org/2000/svg"
   	xmlns:oryx="http://www.b3mn.org/oryx"
   	xmlns:xlink="http://www.w3.org/1999/xlink"
	
	width="108px" 
	height="105px"
	version="1.0">
	<defs></defs>
	<oryx:magnets>
		<oryx:magnet oryx:cx="0" oryx:cy="40" oryx:anchors="left" />
		<oryx:magnet oryx:cx="50" oryx:cy="80" oryx:anchors="bottom" />
		<oryx:magnet oryx:cx="100" oryx:cy="40" oryx:anchors="right" />
		<oryx:magnet oryx:cx="50" oryx:cy="0" oryx:anchors="top" />
		<oryx:magnet oryx:cx="50" oryx:cy="40" oryx:default="yes" />
	</oryx:magnets>
	
	<g pointer-events="fill" oryx:minimumSize="50 49" oryx:maximumSize="200 194">

		<path id="bg_frame" oryx:anchors="left right" oryx:resize="vertical horizontal" fill="#ffffff" stroke="#000000" 
			d="M129.592,26.017c0,4.458,0,77.584,0,83s-28.25,10.666-54,10.666
			S22.925,114.6,22.925,108.85s0-77.959,0-82.667"/>
		<path id="bg_frame2" oryx:anchors="top left right" oryx:resize="vertical horizontal" fill="#ffffff" stroke="#000000" 
			d="M129.592,42.017c0,3.417-6.229,11.271-53.792,11.271s-52.875-8.062-52.875-11.104
			 M22.925,34.183c0,3.042,5.312,11.104,52.875,11.104s53.792-7.854,53.792-11.271 M22.925,26.183
			c0,4.043,5.312,11.104,52.875,11.104s53.792-6.729,53.792-11.271s-21.063-9.854-53.834-9.854S22.925,22.14,22.925,26.183z
			 M129.592,26.017v8.334 M22.967,26.017v8.334 M129.592,34.017v8.334 M22.967,34.017v8.334"/>

	</g>
</svg>
